# Blender v3.2.0 OBJ File: ''
# www.blender.org
mtllib cylinder.mtl
o Cylinder
v 0.000000 -1.000000 -0.500000
v 0.191342 1.000000 0.461940
v 0.097545 -1.000000 -0.490393
v 0.277785 1.000000 0.415735
v 0.191342 -1.000000 -0.461940
v 0.353553 1.000000 0.353553
v 0.277785 -1.000000 -0.415735
v 0.415735 1.000000 0.277785
v 0.353553 -1.000000 -0.353553
v 0.461940 1.000000 0.191342
v 0.415735 -1.000000 -0.277785
v 0.490393 1.000000 0.097545
v 0.461940 -1.000000 -0.191342
v 0.500000 1.000000 0.000000
v 0.490393 -1.000000 -0.097545
v 0.490393 1.000000 -0.097545
v 0.500000 -1.000000 0.000000
v -0.097545 1.000000 -0.490393
v 0.490393 -1.000000 0.097545
v -0.191342 1.000000 -0.461940
v 0.461940 -1.000000 0.191342
v -0.277785 1.000000 -0.415735
v 0.415735 -1.000000 0.277785
v -0.353553 1.000000 -0.353553
v 0.353553 -1.000000 0.353553
v -0.415735 1.000000 -0.277785
v 0.277785 -1.000000 0.415735
v -0.461940 1.000000 -0.191342
v 0.191342 -1.000000 0.461940
v -0.490393 1.000000 -0.097545
v 0.097545 -1.000000 0.490393
v -0.500000 1.000000 0.000000
v -0.000000 -1.000000 0.500000
v -0.490393 1.000000 0.097545
v -0.097545 -1.000000 0.490393
v -0.461940 1.000000 0.191342
v -0.191342 -1.000000 0.461940
v -0.415735 1.000000 0.277785
v -0.277785 -1.000000 0.415735
v -0.353553 1.000000 0.353553
v -0.353553 -1.000000 0.353553
v -0.277785 1.000000 0.415735
v -0.415735 -1.000000 0.277785
v -0.191342 1.000000 0.461940
v -0.461940 -1.000000 0.191342
v -0.097545 1.000000 0.490393
v -0.490393 -1.000000 0.097545
v -0.000000 1.000000 0.500000
v -0.500000 -1.000000 0.000000
v 0.097545 1.000000 0.490393
v -0.490393 -1.000000 -0.097545
v 0.461940 1.000000 -0.191342
v -0.461940 -1.000000 -0.191342
v 0.415735 1.000000 -0.277785
v -0.415735 -1.000000 -0.277785
v 0.353553 1.000000 -0.353553
v -0.353553 -1.000000 -0.353553
v 0.277785 1.000000 -0.415735
v -0.277785 -1.000000 -0.415735
v 0.191342 1.000000 -0.461940
v -0.191342 -1.000000 -0.461940
v 0.097545 1.000000 -0.490393
v -0.097545 -1.000000 -0.490393
v 0.000000 1.000000 -0.500000
v 0.000000 -1.000000 0.000000
v 0.000000 1.000000 0.000000
vt 0.218750 0.500000
vt 0.250000 0.500000
vt 0.000000 0.000000
vt 0.156250 0.500000
vt 0.187500 0.500000
vt 0.125000 0.500000
vt 0.093750 0.500000
vt 0.062500 0.500000
vt 0.031250 0.500000
vt 1.000000 0.500000
vt 0.750000 0.500000
vt 0.781250 0.500000
vt 0.812500 0.500000
vt 0.718750 0.500000
vt 0.687500 0.500000
vt 0.656250 0.500000
vt 0.625000 0.500000
vt 0.593750 0.500000
vt 0.562500 0.500000
vt 0.531250 0.500000
vt 0.500000 0.500000
vt 0.468750 0.500000
vt 0.437500 0.500000
vt 0.406250 0.500000
vt 0.375000 0.500000
vt 0.343750 0.500000
vt 0.312500 0.500000
vt 0.281250 0.500000
vt 0.968750 0.500000
vt 0.937500 0.500000
vt 0.937500 0.500000
vt 0.906250 0.500000
vt 0.000000 0.000000
vt 0.875000 0.500000
vt 0.906250 0.500000
vt 0.843750 0.500000
vt 0.843750 0.500000
vt 0.875000 0.500000
vt 0.812500 0.500000
vt 0.968750 0.500000
vt 1.000000 0.500000
vt 0.031250 0.500000
vt 0.062500 0.500000
vt 0.093750 0.500000
vt 0.125000 0.500000
vt 0.156250 0.500000
vt 0.187500 0.500000
vt 0.218750 0.500000
vt 0.250000 0.500000
vt 0.281250 0.500000
vt 0.312500 0.500000
vt 0.343750 0.500000
vt 0.375000 0.500000
vt 0.406250 0.500000
vt 0.437500 0.500000
vt 0.468750 0.500000
vt 0.500000 0.500000
vt 0.531250 0.500000
vt 0.562500 0.500000
vt 0.593750 0.500000
vt 0.625000 0.500000
vt 0.656250 0.500000
vt 0.687500 0.500000
vt 0.718750 0.500000
vt 0.750000 0.500000
vt 0.781250 0.500000
vn 0.0000 1.0000 0.0000
vn 0.0000 -1.0000 0.0000
vn -0.9952 0.0000 -0.0980
vn 0.6344 0.0000 -0.7730
vn 0.4714 0.0000 -0.8819
vn 0.7730 0.0000 0.6344
vn -0.7730 0.0000 0.6344
vn -0.4714 0.0000 -0.8819
vn 0.9952 0.0000 -0.0980
vn -0.0980 0.0000 0.9952
vn -0.9569 0.0000 -0.2903
vn 0.6344 0.0000 0.7730
vn -0.8819 0.0000 0.4714
vn -0.2903 0.0000 -0.9569
vn 0.9952 0.0000 0.0980
vn -0.2903 0.0000 0.9569
vn -0.8819 0.0000 -0.4714
vn 0.7730 0.0000 -0.6344
vn 0.4714 0.0000 0.8819
vn -0.9569 0.0000 0.2903
vn 0.0980 0.0000 -0.9952
vn -0.0980 0.0000 -0.9952
vn 0.9569 0.0000 0.2903
vn -0.4714 0.0000 0.8819
vn -0.7730 0.0000 -0.6344
vn 0.8819 0.0000 -0.4714
vn 0.2903 0.0000 0.9569
vn -0.9952 0.0000 0.0980
vn 0.2903 0.0000 -0.9569
vn 0.8819 0.0000 0.4714
vn -0.6344 0.0000 0.7730
vn -0.6344 0.0000 -0.7730
vn 0.9569 0.0000 -0.2903
vn 0.0980 0.0000 0.9952
usemtl None
s off
f 30/1/1 32/2/1 66/3/1
f 26/4/1 28/5/1 66/3/1
f 24/6/1 26/4/1 66/3/1
f 22/7/1 24/6/1 66/3/1
f 20/8/1 22/7/1 66/3/1
f 18/9/1 20/8/1 66/3/1
f 64/10/1 18/9/1 66/3/1
f 14/11/1 16/12/1 66/3/1
f 16/12/1 52/13/1 66/3/1
f 12/14/1 14/11/1 66/3/1
f 10/15/1 12/14/1 66/3/1
f 8/16/1 10/15/1 66/3/1
f 6/17/1 8/16/1 66/3/1
f 4/18/1 6/17/1 66/3/1
f 2/19/1 4/18/1 66/3/1
f 50/20/1 2/19/1 66/3/1
f 48/21/1 50/20/1 66/3/1
f 46/22/1 48/21/1 66/3/1
f 44/23/1 46/22/1 66/3/1
f 42/24/1 44/23/1 66/3/1
f 40/25/1 42/24/1 66/3/1
f 38/26/1 40/25/1 66/3/1
f 36/27/1 38/26/1 66/3/1
f 36/27/1 66/3/1 34/28/1
f 32/2/1 34/28/1 66/3/1
f 62/29/1 64/10/1 66/3/1
f 60/30/1 62/29/1 66/3/1
f 5/31/2 7/32/2 65/33/2
f 56/34/1 58/35/1 66/3/1
f 52/13/1 54/36/1 66/3/1
f 11/37/2 65/33/2 9/38/2
f 54/36/1 56/34/1 66/3/1
f 28/5/1 30/1/1 66/3/1
f 13/39/2 65/33/2 11/37/2
f 9/38/2 65/33/2 7/32/2
f 66/3/1 58/35/1 60/30/1
f 5/31/2 65/33/2 3/40/2
f 3/40/2 65/33/2 1/41/2
f 1/41/2 65/33/2 63/42/2
f 63/42/2 65/33/2 61/43/2
f 61/43/2 65/33/2 59/44/2
f 59/44/2 65/33/2 57/45/2
f 57/45/2 65/33/2 55/46/2
f 55/46/2 65/33/2 53/47/2
f 53/47/2 65/33/2 51/48/2
f 51/48/2 65/33/2 49/49/2
f 49/49/2 65/33/2 47/50/2
f 45/51/2 47/50/2 65/33/2
f 45/51/2 65/33/2 43/52/2
f 43/52/2 65/33/2 41/53/2
f 41/53/2 65/33/2 39/54/2
f 39/54/2 65/33/2 37/55/2
f 37/55/2 65/33/2 35/56/2
f 35/56/2 65/33/2 33/57/2
f 33/57/2 65/33/2 31/58/2
f 31/58/2 65/33/2 29/59/2
f 29/59/2 65/33/2 27/60/2
f 27/60/2 65/33/2 25/61/2
f 25/61/2 65/33/2 23/62/2
f 23/62/2 65/33/2 21/63/2
f 21/63/2 65/33/2 19/64/2
f 19/64/2 65/33/2 17/65/2
f 15/66/2 65/33/2 13/39/2
f 17/65/2 65/33/2 15/66/2
f 51/48/3 49/49/3 32/2/3
f 56/34/4 9/38/4 7/32/4
f 5/31/5 58/35/5 7/32/5
f 25/61/6 23/62/6 8/16/6
f 43/52/7 41/53/7 40/25/7
f 61/43/8 59/44/8 22/7/8
f 17/65/9 15/66/9 16/12/9
f 35/56/10 33/57/10 48/21/10
f 53/47/11 51/48/11 30/1/11
f 27/60/12 25/61/12 6/17/12
f 45/51/13 43/52/13 38/26/13
f 63/42/14 61/43/14 20/8/14
f 19/64/15 17/65/15 14/11/15
f 37/55/16 35/56/16 46/22/16
f 55/46/17 53/47/17 28/5/17
f 11/37/18 9/38/18 56/34/18
f 29/59/19 27/60/19 4/18/19
f 47/50/20 45/51/20 36/27/20
f 3/40/21 1/41/21 64/10/21
f 1/41/22 63/42/22 18/9/22
f 21/63/23 19/64/23 12/14/23
f 39/54/24 37/55/24 44/23/24
f 57/45/25 55/46/25 26/4/25
f 13/39/26 11/37/26 54/36/26
f 31/58/27 29/59/27 2/19/27
f 49/49/28 47/50/28 34/28/28
f 5/31/29 3/40/29 62/29/29
f 23/62/30 21/63/30 10/15/30
f 41/53/31 39/54/31 42/24/31
f 59/44/32 57/45/32 24/6/32
f 15/66/33 13/39/33 52/13/33
f 33/57/34 31/58/34 50/20/34
f 51/48/3 32/2/3 30/1/3
f 56/34/4 7/32/4 58/35/4
f 5/31/5 60/30/5 58/35/5
f 25/61/6 8/16/6 6/17/6
f 43/52/7 40/25/7 38/26/7
f 61/43/8 22/7/8 20/8/8
f 17/65/9 16/12/9 14/11/9
f 35/56/10 48/21/10 46/22/10
f 53/47/11 30/1/11 28/5/11
f 27/60/12 6/17/12 4/18/12
f 45/51/13 38/26/13 36/27/13
f 63/42/14 20/8/14 18/9/14
f 19/64/15 14/11/15 12/14/15
f 37/55/16 46/22/16 44/23/16
f 55/46/17 28/5/17 26/4/17
f 11/37/18 56/34/18 54/36/18
f 29/59/19 4/18/19 2/19/19
f 47/50/20 36/27/20 34/28/20
f 3/40/21 64/10/21 62/29/21
f 1/41/22 18/9/22 64/10/22
f 21/63/23 12/14/23 10/15/23
f 39/54/24 44/23/24 42/24/24
f 57/45/25 26/4/25 24/6/25
f 13/39/26 54/36/26 52/13/26
f 31/58/27 2/19/27 50/20/27
f 49/49/28 34/28/28 32/2/28
f 5/31/29 62/29/29 60/30/29
f 23/62/30 10/15/30 8/16/30
f 41/53/31 42/24/31 40/25/31
f 59/44/32 24/6/32 22/7/32
f 15/66/33 52/13/33 16/12/33
f 33/57/34 50/20/34 48/21/34
