# Blender v3.2.0 OBJ File: ''
# www.blender.org
mtllib fish.mtl
o Cube_Cube.001
v -0.380420 -0.831804 -1.686097
v -0.380420 0.831804 -1.686097
v 0.380420 -0.831804 -1.686097
v 0.380420 0.831804 -1.686097
v -0.146163 -0.518055 2.807527
v -0.146163 0.518055 2.807527
v 0.146163 -0.518055 2.807527
v 0.146163 0.518055 2.807527
v 0.457343 1.000000 1.000000
v 0.457343 -1.000000 1.000000
v -0.457343 -1.000000 1.000000
v -0.457343 1.000000 1.000000
v 0.234818 -0.513438 -2.310367
v -0.234818 -0.513438 -2.310367
v -0.234818 0.513438 -2.310367
v 0.234818 0.513438 -2.310367
v 0.234818 -0.513438 -2.928069
v -0.234818 -0.513438 -2.928069
v -0.234818 0.513438 -2.928069
v 0.234818 0.513438 -2.928069
v 0.146393 -1.385061 -3.668182
v -0.146393 -1.385061 -3.668182
v -0.146393 1.385061 -3.668182
v 0.146393 1.385061 -3.668182
vt 0.625000 0.250000
vt 0.375000 0.250000
vt 0.375000 0.250000
vt 0.625000 0.250000
vt 0.625000 0.500000
vt 0.375000 0.500000
vt 0.400062 0.525062
vt 0.599938 0.525062
vt 0.599938 0.724938
vt 0.400062 0.724938
vt 0.375000 0.750000
vt 0.625000 0.750000
vt 0.625000 1.000000
vt 0.375000 1.000000
vt 0.125000 0.500000
vt 0.125000 0.750000
vt 0.875000 0.500000
vt 0.875000 0.750000
vt 0.125000 0.500000
vt 0.125000 0.750000
vt 0.125000 0.750000
vt 0.125000 0.500000
vt 0.625000 1.000000
vt 0.375000 1.000000
vt 0.875000 0.500000
vt 0.875000 0.750000
vt 0.625000 0.250000
vt 0.375000 0.250000
vt 0.375000 0.250000
vt 0.625000 0.250000
vt 0.625000 1.000000
vt 0.375000 1.000000
vt 0.875000 0.500000
vt 0.875000 0.750000
vt 0.375000 0.000000
vt 0.625000 0.000000
vt 0.625000 1.000000
vt 0.375000 1.000000
vt 0.875000 0.500000
vt 0.875000 0.750000
vt 0.125000 0.750000
vt 0.125000 0.500000
vn 0.9739 0.0000 -0.2271
vn 0.9996 0.0000 -0.0286
vn 0.0000 0.0000 1.0000
vn -0.9996 0.0000 -0.0286
vn 0.0000 -0.9980 -0.0625
vn 0.0000 0.9980 -0.0625
vn 0.9855 0.0000 0.1697
vn 0.0000 -0.9662 0.2576
vn 0.0000 0.9662 0.2576
vn -0.9855 0.0000 0.1697
vn 0.0000 -1.0000 0.0000
vn -0.9739 0.0000 -0.2271
vn 0.0000 0.8908 -0.4543
vn 0.0000 -0.8908 -0.4543
vn 0.9929 0.0000 -0.1186
vn 1.0000 0.0000 0.0000
vn -1.0000 0.0000 0.0000
vn 0.0000 1.0000 0.0000
vn 0.0000 0.0000 -1.0000
vn -0.9929 0.0000 -0.1186
vn 0.0000 0.6473 0.7623
vn 0.0000 -0.6473 0.7623
usemtl None
s off
f 4/1/1 3/2/1 13/3/1 16/4/1
f 3/2/2 4/1/2 9/5/2 10/6/2
f 7/7/3 8/8/3 6/9/3 5/10/3
f 11/11/4 12/12/4 2/13/4 1/14/4
f 3/15/5 10/6/5 11/11/5 1/16/5
f 9/5/6 4/17/6 2/18/6 12/12/6
f 8/8/7 7/7/7 10/6/7 9/5/7
f 7/7/8 5/10/8 11/11/8 10/6/8
f 6/9/9 8/8/9 9/5/9 12/12/9
f 5/10/10 6/9/10 12/12/10 11/11/10
f 13/19/11 14/20/11 18/21/11 17/22/11
f 1/14/12 2/13/12 15/23/12 14/24/12
f 2/18/13 4/17/13 16/25/13 15/26/13
f 3/15/14 1/16/14 14/20/14 13/19/14
f 20/27/15 17/28/15 21/29/15 24/30/15
f 16/4/16 13/3/16 17/28/16 20/27/16
f 14/24/17 15/23/17 19/31/17 18/32/17
f 15/26/18 16/25/18 20/33/18 19/34/18
f 22/35/19 23/36/19 24/30/19 21/29/19
f 18/32/20 19/31/20 23/37/20 22/38/20
f 19/34/21 20/33/21 24/39/21 23/40/21
f 17/22/22 18/21/22 22/41/22 21/42/22
